0
SECTION
2
HEADER
9
$INSUNITS
70
4
9
$ACADVER
1
AC1014
9
$HANDSEED
5
FFFF
0
ENDSEC
0
SECTION
2
TABLES
0
TABLE
2
VPORT
5
8
100
AcDbSymbolTable
0
ENDTAB
0
TABLE
2
LTYPE
5
5
100
AcDbSymbolTable
0
LTYPE
5
14
100
AcDbSymbolTableRecord
100
AcDbLinetypeTableRecord
2
BYBLOCK
70
0
0
LTYPE
5
15
100
AcDbSymbolTableRecord
100
AcDbLinetypeTableRecord
2
BYLAYER
70
0
0
LTYPE
5
16
100
AcDbSymbolTableRecord
100
AcDbLinetypeTableRecord
2
DASHED
70
0
3
Dashed __ __ __ __ __ __ __ __ __ __ __ __ __ _
72
65
73
2
40
0.75
49
0.5
74
0
49
-0.25
74
0
0
ENDTAB
0
TABLE
2
LAYER
5
2
100
AcDbSymbolTable
70
2
0
LAYER
5
50
100
AcDbSymbolTableRecord
100
AcDbLayerTableRecord
2
0
70
0
62
7
6
CONTINUOUS
0
ENDTAB
0
TABLE
2
STYLE
5
3
100
AcDbSymbolTable
70
1
0
STYLE
5
11
100
AcDbSymbolTableRecord
100
AcDbTextStyleTableRecord
2
STANDARD
70
0
0
ENDTAB
0
TABLE
2
VIEW
5
6
100
AcDbSymbolTable
70
0
0
ENDTAB
0
TABLE
2
UCS
5
7
100
AcDbSymbolTable
70
0
0
ENDTAB
0
TABLE
2
APPID
5
9
100
AcDbSymbolTable
70
2
0
APPID
5
12
100
AcDbSymbolTableRecord
100
AcDbRegAppTableRecord
2
ACAD
70
0
0
ENDTAB
0
TABLE
2
DIMSTYLE
5
A
100
AcDbSymbolTable
70
1
0
ENDTAB
0
TABLE
2
BLOCK_RECORD
5
1
100
AcDbSymbolTable
70
1
0
BLOCK_RECORD
5
1F
100
AcDbSymbolTableRecord
100
AcDbBlockTableRecord
2
*MODEL_SPACE
0
BLOCK_RECORD
5
1B
100
AcDbSymbolTableRecord
100
AcDbBlockTableRecord
2
*PAPER_SPACE
0
ENDTAB
0
ENDSEC
0
SECTION
2
BLOCKS
0
BLOCK
5
20
100
AcDbEntity
100
AcDbBlockBegin
2
*MODEL_SPACE
0
ENDBLK
5
21
100
AcDbEntity
100
AcDbBlockEnd
0
BLOCK
5
1C
100
AcDbEntity
100
AcDbBlockBegin
2
*PAPER_SPACE
0
ENDBLK
5
1D
100
AcDbEntity
100
AcDbBlockEnd
0
ENDSEC
0
SECTION
2
ENTITIES
0
POINT
5
100
100
AcDbEntity
8
0
100
AcDbPoint
10
0
20
0
30
0
0
POINT
5
101
100
AcDbEntity
8
0
100
AcDbPoint
10
29.034672693594246
20
27.413666458147645
30
0
0
POINT
5
102
100
AcDbEntity
8
0
100
AcDbPoint
10
29.034672693594246
20
27.413666458147645
30
0
0
POINT
5
103
100
AcDbEntity
8
0
100
AcDbPoint
10
719.03467269360181
20
141.66366645814549
30
0
0
POINT
5
104
100
AcDbEntity
8
0
100
AcDbPoint
10
719.03467269360181
20
141.66366645814549
30
0
0
POINT
5
105
100
AcDbEntity
8
0
100
AcDbPoint
10
719.03467269360181
20
150.16366645813093
30
0
0
POINT
5
106
100
AcDbEntity
8
0
100
AcDbPoint
10
719.03467269360181
20
150.16366645813093
30
0
0
POINT
5
107
100
AcDbEntity
8
0
100
AcDbPoint
10
719.03467269360181
20
407.06366645814546
30
0
0
POINT
5
108
100
AcDbEntity
8
0
100
AcDbPoint
10
719.03467269360181
20
415.56366645813091
30
0
0
POINT
5
109
100
AcDbEntity
8
0
100
AcDbPoint
10
719.03467269360181
20
415.56366645813091
30
0
0
POINT
5
110
100
AcDbEntity
8
0
100
AcDbPoint
10
719.03467269360181
20
407.06366645814546
30
0
0
POINT
5
111
100
AcDbEntity
8
0
100
AcDbPoint
10
339.03467269360181
20
329.4636664581455
30
0
0
POINT
5
112
100
AcDbEntity
8
0
100
AcDbPoint
10
339.03467269360181
20
329.4636664581455
30
0
0
POINT
5
113
100
AcDbEntity
8
0
100
AcDbPoint
10
339.03467269360181
20
337.96366645813094
30
0
0
POINT
5
114
100
AcDbEntity
8
0
100
AcDbPoint
10
29.034672691949481
20
213.71377737292303
30
0
0
POINT
5
115
100
AcDbEntity
8
0
100
AcDbPoint
10
339.03467269360181
20
337.96366645813094
30
0
0
POINT
5
116
100
AcDbEntity
8
0
100
AcDbPoint
10
0
20
0
30
0
0
LWPOLYLINE
5
117
100
AcDbEntity
8
0
100
AcDbPolyline
90
4
70
1
43
0.0
10
0
20
0
10
914
20
0
10
914
20
812
10
0
20
812
0
LWPOLYLINE
5
118
100
AcDbEntity
8
0
100
AcDbPolyline
90
4
70
1
43
0.0
10
365
20
525
10
605
20
525
10
605
20
215
10
365
20
215
0
LINE
5
119
100
AcDbEntity
8
0
100
AcDbLine
10
330.5346726935997
20
27.413666458143666
30
0
11
339.03467269360249
21
27.413666458143666
31
0
0
LINE
5
120
100
AcDbEntity
8
0
100
AcDbLine
10
339.03467269360249
20
27.413666458143666
30
0
11
339.03467269524822
21
35.91355554215454
31
0
0
LWPOLYLINE
5
121
100
AcDbEntity
8
0
100
AcDbPolyline
90
2
70
1
43
0.0
10
330.53467269359874
20
35.913666458140483
10
285.53467269359913
20
35.913666458133434
0
LINE
5
122
100
AcDbEntity
8
0
100
AcDbLine
10
339.03467269361528
20
134.91361100014899
30
0
11
339.03467269361528
21
188.41366645814333
31
0
0
LINE
5
123
100
AcDbEntity
8
0
100
AcDbLine
10
330.53467269359248
20
134.66361100014893
30
0
11
330.53467269359248
21
89.663611000148933
31
0
0
LINE
5
124
100
AcDbEntity
8
0
100
AcDbLine
10
330.53467269359248
20
134.91361100014899
30
0
11
330.53467269359248
21
134.66361100014893
31
0
0
LINE
5
125
100
AcDbEntity
8
0
100
AcDbLine
10
330.53467269359248
20
89.413611000148876
30
0
11
330.53467269359248
21
89.663611000148933
31
0
0
LINE
5
126
100
AcDbEntity
8
0
100
AcDbLine
10
339.03467269361528
20
188.41366645814333
30
0
11
29.034672693252048
21
188.41366645813707
31
0
0
LINE
5
127
100
AcDbEntity
8
0
100
AcDbLine
10
339.03467269443183
20
89.413611000148876
30
0
11
330.53467269359248
21
89.413611000148876
31
0
0
LINE
5
128
100
AcDbEntity
8
0
100
AcDbLine
10
339.03467269524839
20
35.91355554215454
30
0
11
339.03467269443183
21
89.413611000148876
31
0
0
LWPOLYLINE
5
129
100
AcDbEntity
8
0
100
AcDbPolyline
90
6
70
1
43
0.0
10
82.534672693597599
20
35.913666458139417
10
37.534672693598026
20
35.913666458139417
10
37.534672693598026
20
27.413666458139474
10
29.03467269307793
20
27.413666458143666
10
37.534672693077873
20
27.413666458143666
10
37.534672693598026
20
35.913666458139417
0
LINE
5
130
100
AcDbEntity
8
0
100
AcDbLine
10
206.78467269359857
20
35.913666458142472
30
0
11
206.28467269359879
21
35.913666458142458
31
0
0
LINE
5
131
100
AcDbEntity
8
0
100
AcDbLine
10
37.534672693598026
20
35.913666458139417
30
0
11
37.784672693599184
21
35.913666458139417
31
0
0
LINE
5
132
100
AcDbEntity
8
0
100
AcDbLine
10
37.534672693622362
20
27.413666457834111
30
0
11
29.034672693619576
21
27.413666457816149
31
0
0
LINE
5
133
100
AcDbEntity
8
0
100
AcDbLine
10
29.034672693619576
20
27.413666457816149
30
0
11
29.034672692659242
21
89.413610999821373
31
0
0
LINE
5
134
100
AcDbEntity
8
0
100
AcDbLine
10
29.034672692659242
20
89.413610999821373
30
0
11
29.034672694237535
21
35.913666458137072
31
0
0
LINE
5
135
100
AcDbEntity
8
0
100
AcDbLine
10
161.28467269360186
20
35.913666458140483
30
0
11
161.28467269360172
21
27.413666458137982
31
0
0
LINE
5
136
100
AcDbEntity
8
0
100
AcDbLine
10
82.784672693598225
20
35.913666458148157
30
0
11
82.78467269359794
21
27.413666458139971
31
0
0
LINE
5
137
100
AcDbEntity
8
0
100
AcDbLine
10
29.03467269307793
20
27.413666458143666
30
0
11
29.034672694237535
21
35.913666458137072
31
0
0
LWPOLYLINE
5
138
100
AcDbEntity
8
0
100
AcDbPolyline
90
2
70
1
43
0.0
10
161.53467269360203
20
35.913666458140497
10
206.53467269360161
20
35.913666458140497
0
LINE
5
139
100
AcDbEntity
8
0
100
AcDbLine
10
29.034672693252048
20
188.41366645813707
30
0
11
29.034672693379662
21
134.91361099982146
31
0
0
LINE
5
140
100
AcDbEntity
8
0
100
AcDbLine
10
29.034672693379662
20
134.91361099982146
30
0
11
37.534672693402484
21
134.91361099983945
31
0
0
LINE
5
141
100
AcDbEntity
8
0
100
AcDbLine
10
37.534672693498621
20
89.413610999839335
30
0
11
37.534672693498088
21
89.663610999839392
31
0
0
LINE
5
142
100
AcDbEntity
8
0
100
AcDbLine
10
29.034672693379662
20
134.91361099982146
30
0
11
29.034672693266614
21
188.41366645781579
31
0
0
LINE
5
143
100
AcDbEntity
8
0
100
AcDbLine
10
29.034672692659242
20
89.413610999821373
30
0
11
37.534672693498621
21
89.413610999839335
31
0
0
LINE
5
144
100
AcDbEntity
8
0
100
AcDbLine
10
29.034672693619576
20
27.413666457816149
30
0
11
29.034672691955876
21
35.913555541827037
31
0
0
LINE
5
145
100
AcDbEntity
8
0
100
AcDbLine
10
330.53467269359874
20
35.913666458140483
30
0
11
330.5346726935997
21
27.413666458143666
31
0
0
LINE
5
146
100
AcDbEntity
8
0
100
AcDbLine
10
37.534672693402484
20
134.91361099983945
30
0
11
37.534672693402982
21
134.66361099983939
31
0
0
LINE
5
147
100
AcDbEntity
8
0
100
AcDbLine
10
37.534672693402982
20
134.66361099983939
30
0
11
37.534672693498088
21
89.663610999839392
31
0
0
LINE
5
148
100
AcDbEntity
8
0
100
AcDbLine
10
37.534672693605415
20
35.913666457830935
30
0
11
37.534672693622362
21
27.413666457834111
31
0
0
LINE
5
149
100
AcDbEntity
8
0
100
AcDbLine
10
206.78467269359578
20
27.413666458300412
30
0
11
206.78467269359857
21
35.913666458142472
31
0
0
LINE
5
150
100
AcDbEntity
8
0
100
AcDbLine
10
82.78467269359794
20
27.413666458139971
30
0
11
161.28467269360172
21
27.413666458137982
31
0
0
LINE
5
151
100
AcDbEntity
8
0
100
AcDbLine
10
161.78467269360183
20
35.913666458139417
30
0
11
161.28467269360186
21
35.913666458140483
31
0
0
LINE
5
152
100
AcDbEntity
8
0
100
AcDbLine
10
339.03467269361528
20
134.91361100014899
30
0
11
330.53467269359248
21
134.91361100014899
31
0
0
LINE
5
153
100
AcDbEntity
8
0
100
AcDbLine
10
339.03467269360249
20
27.413666458143666
30
0
11
339.03467269443183
21
89.413611000148876
31
0
0
LINE
5
154
100
AcDbEntity
8
0
100
AcDbLine
10
285.28467269360067
20
27.413666458132013
30
0
11
285.28467269360067
21
35.913666458140483
31
0
0
LINE
5
155
100
AcDbEntity
8
0
100
AcDbLine
10
82.284672693598111
20
35.913666458148157
30
0
11
82.784672693598225
21
35.913666458148157
31
0
0
LINE
5
156
100
AcDbEntity
8
0
100
AcDbLine
10
206.78467269359578
20
27.413666458300412
30
0
11
285.28467269360067
21
27.413666458132013
31
0
0
LINE
5
157
100
AcDbEntity
8
0
100
AcDbLine
10
285.28467269360067
20
35.913666458140483
30
0
11
285.78467269360061
21
35.913666458140483
31
0
0
LINE
5
158
100
AcDbEntity
8
0
100
AcDbLine
10
29.034672691955734
20
35.913555541827037
30
0
11
29.034672692659242
21
89.413610999821373
31
0
0
LINE
5
159
100
AcDbEntity
8
0
100
AcDbLine
10
330.53467269359248
20
134.91361100014899
30
0
11
330.53467269359248
21
134.66361100014893
31
0
0
LINE
5
160
100
AcDbEntity
8
0
100
AcDbLine
10
339.03467269361528
20
134.91361100014899
30
0
11
339.03467269361528
21
188.41366645814333
31
0
0
LINE
5
161
100
AcDbEntity
8
0
100
AcDbLine
10
29.034672693252048
20
188.41366645813707
30
0
11
29.034672693379662
21
134.91361099982146
31
0
0
LINE
5
162
100
AcDbEntity
8
0
100
AcDbLine
10
339.03467269524839
20
35.91355554215454
30
0
11
339.03467269443183
21
89.413611000148876
31
0
0
LINE
5
163
100
AcDbEntity
8
0
100
AcDbLine
10
29.034672693379662
20
134.91361099982146
30
0
11
29.034672693266614
21
188.41366645781579
31
0
0
LINE
5
164
100
AcDbEntity
8
0
100
AcDbLine
10
285.28467269360067
20
27.413666458132013
30
0
11
285.28467269360067
21
35.913666458140483
31
0
0
LINE
5
165
100
AcDbEntity
8
0
100
AcDbLine
10
330.5346726935997
20
27.413666458143666
30
0
11
339.03467269360249
21
27.413666458143666
31
0
0
LINE
5
166
100
AcDbEntity
8
0
100
AcDbLine
10
339.03467269361528
20
188.41366645814333
30
0
11
29.034672693252048
21
188.41366645813707
31
0
0
LINE
5
167
100
AcDbEntity
8
0
100
AcDbLine
10
330.53467269359874
20
35.913666458140483
30
0
11
330.5346726935997
21
27.413666458143666
31
0
0
LINE
5
168
100
AcDbEntity
8
0
100
AcDbLine
10
206.78467269359578
20
27.413666458300412
30
0
11
285.28467269360067
21
27.413666458132013
31
0
0
LINE
5
169
100
AcDbEntity
8
0
100
AcDbLine
10
285.28467269360067
20
35.913666458140483
30
0
11
285.78467269360061
21
35.913666458140483
31
0
0
LWPOLYLINE
5
170
100
AcDbEntity
8
0
100
AcDbPolyline
90
2
70
1
43
0.0
10
285.53467269359913
20
35.913666458133434
10
330.53467269359874
20
35.913666458140483
0
LINE
5
171
100
AcDbEntity
8
0
100
AcDbLine
10
29.034672692659242
20
89.413610999821373
30
0
11
37.534672693498621
21
89.413610999839335
31
0
0
LINE
5
172
100
AcDbEntity
8
0
100
AcDbLine
10
37.534672693498621
20
89.413610999839335
30
0
11
37.534672693498088
21
89.663610999839392
31
0
0
LINE
5
173
100
AcDbEntity
8
0
100
AcDbLine
10
37.534672693402982
20
134.66361099983939
30
0
11
37.534672693498088
21
89.663610999839392
31
0
0
LWPOLYLINE
5
174
100
AcDbEntity
8
0
100
AcDbPolyline
90
6
70
1
43
0.0
10
37.534672693077873
20
27.413666458143666
10
29.03467269307793
20
27.413666458143666
10
37.534672693598026
20
27.413666458139474
10
37.534672693598026
20
35.913666458139417
10
82.534672693597599
20
35.913666458139417
10
37.534672693598026
20
35.913666458139417
0
LINE
5
175
100
AcDbEntity
8
0
100
AcDbLine
10
37.534672693622362
20
27.413666457834111
30
0
11
29.034672693619576
21
27.413666457816149
31
0
0
LINE
5
176
100
AcDbEntity
8
0
100
AcDbLine
10
29.034672691955734
20
35.913555541827037
30
0
11
29.034672692659242
21
89.413610999821373
31
0
0
LINE
5
177
100
AcDbEntity
8
0
100
AcDbLine
10
29.034672693619576
20
27.413666457816149
30
0
11
29.034672691955876
21
35.913555541827037
31
0
0
LINE
5
178
100
AcDbEntity
8
0
100
AcDbLine
10
37.534672693598026
20
35.913666458139417
30
0
11
37.784672693599184
21
35.913666458139417
31
0
0
LINE
5
179
100
AcDbEntity
8
0
100
AcDbLine
10
37.534672693402484
20
134.91361099983945
30
0
11
37.534672693402982
21
134.66361099983939
31
0
0
LINE
5
180
100
AcDbEntity
8
0
100
AcDbLine
10
29.034672693379662
20
134.91361099982146
30
0
11
37.534672693402484
21
134.91361099983945
31
0
0
LINE
5
181
100
AcDbEntity
8
0
100
AcDbLine
10
29.034672693619576
20
27.413666457816149
30
0
11
29.034672692659242
21
89.413610999821373
31
0
0
LINE
5
182
100
AcDbEntity
8
0
100
AcDbLine
10
206.78467269359578
20
27.413666458300412
30
0
11
206.78467269359857
21
35.913666458142472
31
0
0
LINE
5
183
100
AcDbEntity
8
0
100
AcDbLine
10
161.78467269360183
20
35.913666458139417
30
0
11
161.28467269360186
21
35.913666458140483
31
0
0
LINE
5
184
100
AcDbEntity
8
0
100
AcDbLine
10
339.03467269360249
20
27.413666458143666
30
0
11
339.03467269443183
21
89.413611000148876
31
0
0
LINE
5
185
100
AcDbEntity
8
0
100
AcDbLine
10
161.28467269360186
20
35.913666458140483
30
0
11
161.28467269360172
21
27.413666458137982
31
0
0
LINE
5
186
100
AcDbEntity
8
0
100
AcDbLine
10
330.53467269359248
20
89.413611000148876
30
0
11
330.53467269359248
21
89.663611000148933
31
0
0
LWPOLYLINE
5
187
100
AcDbEntity
8
0
100
AcDbPolyline
90
2
70
1
43
0.0
10
161.53467269360203
20
35.913666458140497
10
206.53467269360161
20
35.913666458140497
0
LINE
5
188
100
AcDbEntity
8
0
100
AcDbLine
10
339.03467269443183
20
89.413611000148876
30
0
11
330.53467269359248
21
89.413611000148876
31
0
0
LINE
5
189
100
AcDbEntity
8
0
100
AcDbLine
10
29.03467269307793
20
27.413666458143666
30
0
11
29.034672694237535
21
35.913666458137072
31
0
0
LINE
5
190
100
AcDbEntity
8
0
100
AcDbLine
10
82.784672693598225
20
35.913666458148157
30
0
11
82.78467269359794
21
27.413666458139971
31
0
0
LINE
5
191
100
AcDbEntity
8
0
100
AcDbLine
10
82.78467269359794
20
27.413666458139971
30
0
11
161.28467269360172
21
27.413666458137982
31
0
0
LINE
5
192
100
AcDbEntity
8
0
100
AcDbLine
10
339.03467269360249
20
27.413666458143666
30
0
11
339.03467269524822
21
35.91355554215454
31
0
0
LINE
5
193
100
AcDbEntity
8
0
100
AcDbLine
10
37.534672693605415
20
35.913666457830935
30
0
11
37.534672693622362
21
27.413666457834111
31
0
0
LINE
5
194
100
AcDbEntity
8
0
100
AcDbLine
10
82.284672693598111
20
35.913666458148157
30
0
11
82.784672693598225
21
35.913666458148157
31
0
0
LINE
5
195
100
AcDbEntity
8
0
100
AcDbLine
10
29.034672692659242
20
89.413610999821373
30
0
11
29.034672694237535
21
35.913666458137072
31
0
0
LINE
5
196
100
AcDbEntity
8
0
100
AcDbLine
10
339.03467269361528
20
134.91361100014899
30
0
11
330.53467269359248
21
134.91361100014899
31
0
0
LINE
5
197
100
AcDbEntity
8
0
100
AcDbLine
10
206.78467269359857
20
35.913666458142472
30
0
11
206.28467269359879
21
35.913666458142458
31
0
0
LINE
5
198
100
AcDbEntity
8
0
100
AcDbLine
10
330.53467269359248
20
134.66361100014893
30
0
11
330.53467269359248
21
89.663611000148933
31
0
0
LINE
5
199
100
AcDbEntity
8
0
100
AcDbLine
10
620.68467269360053
20
27.413666458132013
30
0
11
620.68467269360053
21
35.913666458140483
31
0
0
LINE
5
200
100
AcDbEntity
8
0
100
AcDbLine
10
364.43467269325197
20
188.41366645813707
30
0
11
364.43467269337958
21
134.91361099982146
31
0
0
LINE
5
201
100
AcDbEntity
8
0
100
AcDbLine
10
674.43467269360235
20
27.413666458143666
30
0
11
674.4346726952482
21
35.91355554215454
31
0
0
LINE
5
202
100
AcDbEntity
8
0
100
AcDbLine
10
665.93467269359962
20
27.413666458143666
30
0
11
674.43467269360235
21
27.413666458143666
31
0
0
LINE
5
203
100
AcDbEntity
8
0
100
AcDbLine
10
364.43467269337958
20
134.91361099982146
30
0
11
364.43467269326652
21
188.41366645781579
31
0
0
LINE
5
204
100
AcDbEntity
8
0
100
AcDbLine
10
665.93467269359235
20
134.91361100014899
30
0
11
665.93467269359235
21
134.66361100014893
31
0
0
LWPOLYLINE
5
205
100
AcDbEntity
8
0
100
AcDbPolyline
90
2
70
1
43
0.0
10
665.9346726935986
20
35.913666458140483
10
620.93467269359905
20
35.913666458133434
0
LINE
5
206
100
AcDbEntity
8
0
100
AcDbLine
10
674.43467269443181
20
89.413611000148876
30
0
11
665.93467269359235
21
89.413611000148876
31
0
0
LINE
5
207
100
AcDbEntity
8
0
100
AcDbLine
10
674.4346726936152
20
134.91361100014899
30
0
11
674.4346726936152
21
188.41366645814333
31
0
0
LINE
5
208
100
AcDbEntity
8
0
100
AcDbLine
10
620.68467269360053
20
27.413666458132013
30
0
11
620.68467269360053
21
35.913666458140483
31
0
0
LINE
5
209
100
AcDbEntity
8
0
100
AcDbLine
10
364.43467269337958
20
134.91361099982146
30
0
11
364.43467269326652
21
188.41366645781579
31
0
0
LINE
5
210
100
AcDbEntity
8
0
100
AcDbLine
10
364.43467269325197
20
188.41366645813707
30
0
11
364.43467269337958
21
134.91361099982146
31
0
0
LINE
5
211
100
AcDbEntity
8
0
100
AcDbLine
10
674.43467269360235
20
27.413666458143666
30
0
11
674.4346726952482
21
35.91355554215454
31
0
0
LINE
5
212
100
AcDbEntity
8
0
100
AcDbLine
10
665.93467269359235
20
134.66361100014893
30
0
11
665.93467269359235
21
89.663611000148933
31
0
0
LWPOLYLINE
5
213
100
AcDbEntity
8
0
100
AcDbPolyline
90
2
70
1
43
0.0
10
620.93467269359905
20
35.913666458133434
10
665.9346726935986
20
35.913666458140483
0
LINE
5
214
100
AcDbEntity
8
0
100
AcDbLine
10
674.4346726936152
20
134.91361100014899
30
0
11
674.4346726936152
21
188.41366645814333
31
0
0
LINE
5
215
100
AcDbEntity
8
0
100
AcDbLine
10
665.9346726935986
20
35.913666458140483
30
0
11
665.93467269359962
21
27.413666458143666
31
0
0
LINE
5
216
100
AcDbEntity
8
0
100
AcDbLine
10
372.93467269360531
20
35.913666457830935
30
0
11
372.93467269362225
21
27.413666457834111
31
0
0
LINE
5
217
100
AcDbEntity
8
0
100
AcDbLine
10
417.68467269359803
20
35.913666458148157
30
0
11
418.18467269359815
21
35.913666458148157
31
0
0
LWPOLYLINE
5
218
100
AcDbEntity
8
0
100
AcDbPolyline
90
6
70
1
43
0.0
10
372.93467269359792
20
27.413666458139474
10
372.93467269359792
20
35.913666458139417
10
417.93467269359752
20
35.913666458139417
10
372.93467269359792
20
35.913666458139417
10
372.9346726930778
20
27.413666458143666
10
364.43467269307791
20
27.413666458143666
0
LWPOLYLINE
5
219
100
AcDbEntity
8
0
100
AcDbPolyline
90
6
70
1
43
0.0
10
372.93467269359792
20
27.413666458139474
10
372.93467269359792
20
35.913666458139417
10
417.93467269359752
20
35.913666458139417
10
372.93467269359792
20
35.913666458139417
10
372.9346726930778
20
27.413666458143666
10
364.43467269307791
20
27.413666458143666
0
LINE
5
220
100
AcDbEntity
8
0
100
AcDbLine
10
364.43467269195565
20
35.913555541827037
30
0
11
364.43467269265915
21
89.413610999821373
31
0
0
LWPOLYLINE
5
221
100
AcDbEntity
8
0
100
AcDbPolyline
90
2
70
1
43
0.0
10
496.93467269360201
20
35.913666458140497
10
541.93467269360156
20
35.913666458140497
0
LINE
5
222
100
AcDbEntity
8
0
100
AcDbLine
10
418.18467269359815
20
35.913666458148157
30
0
11
418.18467269359786
21
27.413666458139971
31
0
0
LINE
5
223
100
AcDbEntity
8
0
100
AcDbLine
10
496.68467269360178
20
35.913666458140483
30
0
11
496.68467269360167
21
27.413666458137982
31
0
0
LINE
5
224
100
AcDbEntity
8
0
100
AcDbLine
10
674.4346726936152
20
134.91361100014899
30
0
11
665.93467269359235
21
134.91361100014899
31
0
0
LWPOLYLINE
5
225
100
AcDbEntity
8
0
100
AcDbPolyline
90
2
70
1
43
0.0
10
541.93467269360156
20
35.913666458140497
10
496.93467269360201
20
35.913666458140497
0
LINE
5
226
100
AcDbEntity
8
0
100
AcDbLine
10
542.18467269359576
20
27.413666458300412
30
0
11
542.18467269359849
21
35.913666458142472
31
0
0
LINE
5
227
100
AcDbEntity
8
0
100
AcDbLine
10
497.18467269360178
20
35.913666458139417
30
0
11
496.68467269360178
21
35.913666458140483
31
0
0
LINE
5
228
100
AcDbEntity
8
0
100
AcDbLine
10
665.93467269359962
20
27.413666458143666
30
0
11
674.43467269360235
21
27.413666458143666
31
0
0
LINE
5
229
100
AcDbEntity
8
0
100
AcDbLine
10
665.93467269359235
20
134.91361100014899
30
0
11
665.93467269359235
21
134.66361100014893
31
0
0
LINE
5
230
100
AcDbEntity
8
0
100
AcDbLine
10
674.43467269443181
20
89.413611000148876
30
0
11
665.93467269359235
21
89.413611000148876
31
0
0
LINE
5
231
100
AcDbEntity
8
0
100
AcDbLine
10
674.43467269524831
20
35.91355554215454
30
0
11
674.43467269443181
21
89.413611000148876
31
0
0
LINE
5
232
100
AcDbEntity
8
0
100
AcDbLine
10
364.43467269265915
20
89.413610999821373
30
0
11
364.43467269423752
21
35.913666458137072
31
0
0
LINE
5
233
100
AcDbEntity
8
0
100
AcDbLine
10
372.93467269359792
20
35.913666458139417
30
0
11
373.18467269359917
21
35.913666458139417
31
0
0
LINE
5
234
100
AcDbEntity
8
0
100
AcDbLine
10
542.18467269359576
20
27.413666458300412
30
0
11
620.68467269360053
21
27.413666458132013
31
0
0
LINE
5
235
100
AcDbEntity
8
0
100
AcDbLine
10
542.18467269359576
20
27.413666458300412
30
0
11
620.68467269360053
21
27.413666458132013
31
0
0
LINE
5
236
100
AcDbEntity
8
0
100
AcDbLine
10
674.4346726936152
20
188.41366645814333
30
0
11
364.43467269325197
21
188.41366645813707
31
0
0
LINE
5
237
100
AcDbEntity
8
0
100
AcDbLine
10
620.68467269360053
20
35.913666458140483
30
0
11
621.18467269360053
21
35.913666458140483
31
0
0
LINE
5
238
100
AcDbEntity
8
0
100
AcDbLine
10
674.4346726936152
20
188.41366645814333
30
0
11
364.43467269325197
21
188.41366645813707
31
0
0
LINE
5
239
100
AcDbEntity
8
0
100
AcDbLine
10
372.93467269360531
20
35.913666457830935
30
0
11
372.93467269362225
21
27.413666457834111
31
0
0
LINE
5
240
100
AcDbEntity
8
0
100
AcDbLine
10
674.43467269360235
20
27.413666458143666
30
0
11
674.43467269443181
21
89.413611000148876
31
0
0
LINE
5
241
100
AcDbEntity
8
0
100
AcDbLine
10
620.68467269360053
20
35.913666458140483
30
0
11
621.18467269360053
21
35.913666458140483
31
0
0
LINE
5
242
100
AcDbEntity
8
0
100
AcDbLine
10
674.43467269524831
20
35.91355554215454
30
0
11
674.43467269443181
21
89.413611000148876
31
0
0
LINE
5
243
100
AcDbEntity
8
0
100
AcDbLine
10
665.93467269359235
20
89.413611000148876
30
0
11
665.93467269359235
21
89.663611000148933
31
0
0
LINE
5
244
100
AcDbEntity
8
0
100
AcDbLine
10
364.43467269195565
20
35.913555541827037
30
0
11
364.43467269265915
21
89.413610999821373
31
0
0
LINE
5
245
100
AcDbEntity
8
0
100
AcDbLine
10
496.68467269360178
20
35.913666458140483
30
0
11
496.68467269360167
21
27.413666458137982
31
0
0
LINE
5
246
100
AcDbEntity
8
0
100
AcDbLine
10
665.93467269359235
20
89.413611000148876
30
0
11
665.93467269359235
21
89.663611000148933
31
0
0
LINE
5
247
100
AcDbEntity
8
0
100
AcDbLine
10
418.18467269359815
20
35.913666458148157
30
0
11
418.18467269359786
21
27.413666458139971
31
0
0
LINE
5
248
100
AcDbEntity
8
0
100
AcDbLine
10
497.18467269360178
20
35.913666458139417
30
0
11
496.68467269360178
21
35.913666458140483
31
0
0
LINE
5
249
100
AcDbEntity
8
0
100
AcDbLine
10
542.18467269359849
20
35.913666458142472
30
0
11
541.68467269359871
21
35.913666458142458
31
0
0
LINE
5
250
100
AcDbEntity
8
0
100
AcDbLine
10
674.43467269360235
20
27.413666458143666
30
0
11
674.43467269443181
21
89.413611000148876
31
0
0
LINE
5
251
100
AcDbEntity
8
0
100
AcDbLine
10
542.18467269359576
20
27.413666458300412
30
0
11
542.18467269359849
21
35.913666458142472
31
0
0
LINE
5
252
100
AcDbEntity
8
0
100
AcDbLine
10
542.18467269359849
20
35.913666458142472
30
0
11
541.68467269359871
21
35.913666458142458
31
0
0
LINE
5
253
100
AcDbEntity
8
0
100
AcDbLine
10
674.4346726936152
20
134.91361100014899
30
0
11
665.93467269359235
21
134.91361100014899
31
0
0
LINE
5
254
100
AcDbEntity
8
0
100
AcDbLine
10
418.18467269359786
20
27.413666458139971
30
0
11
496.68467269360167
21
27.413666458137982
31
0
0
LINE
5
255
100
AcDbEntity
8
0
100
AcDbLine
10
364.43467269307791
20
27.413666458143666
30
0
11
364.43467269423752
21
35.913666458137072
31
0
0
LINE
5
256
100
AcDbEntity
8
0
100
AcDbLine
10
665.9346726935986
20
35.913666458140483
30
0
11
665.93467269359962
21
27.413666458143666
31
0
0
LINE
5
257
100
AcDbEntity
8
0
100
AcDbLine
10
665.93467269359235
20
134.66361100014893
30
0
11
665.93467269359235
21
89.663611000148933
31
0
0
LINE
5
258
100
AcDbEntity
8
0
100
AcDbLine
10
418.18467269359786
20
27.413666458139971
30
0
11
496.68467269360167
21
27.413666458137982
31
0
0
LINE
5
259
100
AcDbEntity
8
0
100
AcDbLine
10
364.43467269361946
20
27.413666457816149
30
0
11
364.43467269195583
21
35.913555541827037
31
0
0
LINE
5
260
100
AcDbEntity
8
0
100
AcDbLine
10
372.93467269349856
20
89.413610999839335
30
0
11
372.93467269349804
21
89.663610999839392
31
0
0
LINE
5
261
100
AcDbEntity
8
0
100
AcDbLine
10
417.68467269359803
20
35.913666458148157
30
0
11
418.18467269359815
21
35.913666458148157
31
0
0
LINE
5
262
100
AcDbEntity
8
0
100
AcDbLine
10
372.93467269362225
20
27.413666457834111
30
0
11
364.43467269361946
21
27.413666457816149
31
0
0
LINE
5
263
100
AcDbEntity
8
0
100
AcDbLine
10
364.43467269265915
20
89.413610999821373
30
0
11
364.43467269423752
21
35.913666458137072
31
0
0
LINE
5
264
100
AcDbEntity
8
0
100
AcDbLine
10
364.43467269265915
20
89.413610999821373
30
0
11
372.93467269349856
21
89.413610999839335
31
0
0
LINE
5
265
100
AcDbEntity
8
0
100
AcDbLine
10
372.93467269340238
20
134.91361099983945
30
0
11
372.93467269340289
21
134.66361099983939
31
0
0
LINE
5
266
100
AcDbEntity
8
0
100
AcDbLine
10
372.93467269340238
20
134.91361099983945
30
0
11
372.93467269340289
21
134.66361099983939
31
0
0
LINE
5
267
100
AcDbEntity
8
0
100
AcDbLine
10
364.43467269265915
20
89.413610999821373
30
0
11
372.93467269349856
21
89.413610999839335
31
0
0
LINE
5
268
100
AcDbEntity
8
0
100
AcDbLine
10
364.43467269337958
20
134.91361099982146
30
0
11
372.93467269340238
21
134.91361099983945
31
0
0
LINE
5
269
100
AcDbEntity
8
0
100
AcDbLine
10
364.43467269361946
20
27.413666457816149
30
0
11
364.43467269265915
21
89.413610999821373
31
0
0
LINE
5
270
100
AcDbEntity
8
0
100
AcDbLine
10
364.43467269361946
20
27.413666457816149
30
0
11
364.43467269265915
21
89.413610999821373
31
0
0
LINE
5
271
100
AcDbEntity
8
0
100
AcDbLine
10
372.93467269349856
20
89.413610999839335
30
0
11
372.93467269349804
21
89.663610999839392
31
0
0
LINE
5
272
100
AcDbEntity
8
0
100
AcDbLine
10
372.93467269340289
20
134.66361099983939
30
0
11
372.93467269349804
21
89.663610999839392
31
0
0
LINE
5
273
100
AcDbEntity
8
0
100
AcDbLine
10
372.93467269340289
20
134.66361099983939
30
0
11
372.93467269349804
21
89.663610999839392
31
0
0
LINE
5
274
100
AcDbEntity
8
0
100
AcDbLine
10
364.43467269337958
20
134.91361099982146
30
0
11
372.93467269340238
21
134.91361099983945
31
0
0
LINE
5
275
100
AcDbEntity
8
0
100
AcDbLine
10
364.43467269361946
20
27.413666457816149
30
0
11
364.43467269195583
21
35.913555541827037
31
0
0
LINE
5
276
100
AcDbEntity
8
0
100
AcDbLine
10
372.93467269359792
20
35.913666458139417
30
0
11
373.18467269359917
21
35.913666458139417
31
0
0
LINE
5
277
100
AcDbEntity
8
0
100
AcDbLine
10
364.43467269307791
20
27.413666458143666
30
0
11
364.43467269423752
21
35.913666458137072
31
0
0
LINE
5
278
100
AcDbEntity
8
0
100
AcDbLine
10
372.93467269362225
20
27.413666457834111
30
0
11
364.43467269361946
21
27.413666457816149
31
0
0
LINE
5
279
100
AcDbEntity
8
0
100
AcDbLine
10
773.03472815159694
20
265.9136664581365
30
0
11
773.03472815159694
21
257.41414366491085
31
0
0
LINE
5
280
100
AcDbEntity
8
0
100
AcDbLine
10
772.78472815159694
20
257.41414366491085
30
0
11
772.78472815159694
21
257.4136664581394
31
0
0
LINE
5
281
100
AcDbEntity
8
0
100
AcDbLine
10
817.53472815159682
20
257.41366645813912
30
0
11
817.78472815159694
21
257.41366645813912
31
0
0
LINE
5
282
100
AcDbEntity
8
0
100
AcDbLine
10
817.53472815159682
20
265.91366645814048
30
0
11
817.53472815159682
21
257.41366645813912
31
0
0
LINE
5
283
100
AcDbEntity
8
0
100
AcDbLine
10
870.53467269359976
20
257.41366645813912
30
0
11
817.78472815159694
21
257.41366645813912
31
0
0
LWPOLYLINE
5
284
100
AcDbEntity
8
0
100
AcDbPolyline
90
2
70
1
43
0.0
10
719.03467269360203
20
170.35596061690967
10
719.0346726936026
20
121.9196538777166
0
LWPOLYLINE
5
285
100
AcDbEntity
8
0
100
AcDbPolyline
90
2
70
1
43
0.0
10
719.03467269360226
20
121.47137229936675
10
719.03467269360249
20
169.90767903855982
0
LINE
5
286
100
AcDbEntity
8
0
100
AcDbLine
10
772.78472815159773
20
34.4136664581373
30
0
11
719.0346726936034
21
34.413666458132752
31
0
0
LINE
5
287
100
AcDbEntity
8
0
100
AcDbLine
10
772.78472815159694
20
257.4136664581394
30
0
11
719.03467269360249
21
257.41366645814367
31
0
0
LINE
5
288
100
AcDbEntity
8
0
100
AcDbLine
10
870.53467269359976
20
257.41366645813912
30
0
11
870.53467269359976
21
141.66366645814151
31
0
0
LINE
5
289
100
AcDbEntity
8
0
100
AcDbLine
10
719.03467269360203
20
170.35596061690967
30
0
11
710.53467269360317
21
170.35596061690995
31
0
0
LINE
5
290
100
AcDbEntity
8
0
100
AcDbLine
10
773.03472815159694
20
265.9136664581365
30
0
11
817.53472815159682
21
265.91366645814048
31
0
0
LINE
5
291
100
AcDbEntity
8
0
100
AcDbLine
10
773.03472815159694
20
257.41414366491085
30
0
11
772.78472815159694
21
257.41414366491085
31
0
0
LINE
5
292
100
AcDbEntity
8
0
100
AcDbLine
10
870.53467269360056
20
34.413666458138437
30
0
11
870.53467269359976
21
150.16366645813605
31
0
0
LINE
5
293
100
AcDbEntity
8
0
100
AcDbLine
10
719.03467269360226
20
78.373922875630626
30
0
11
710.53467269360362
21
78.373922875628637
31
0
0
LINE
5
294
100
AcDbEntity
8
0
100
AcDbLine
10
719.0346726936026
20
121.9196538777166
30
0
11
719.03467269360226
21
121.47137229936675
31
0
0
LINE
5
295
100
AcDbEntity
8
0
100
AcDbLine
10
719.03467269360226
20
121.47137229936675
30
0
11
710.53467269360328
21
121.47137229936646
31
0
0
LINE
5
296
100
AcDbEntity
8
0
100
AcDbLine
10
719.03467269360249
20
77.925641297279356
30
0
11
719.03467269360226
21
78.373922875630626
31
0
0
LINE
5
297
100
AcDbEntity
8
0
100
AcDbLine
10
817.53472815159762
20
34.413666458137868
30
0
11
817.78472815159773
21
34.413666458137868
31
0
0
LINE
5
298
100
AcDbEntity
8
0
100
AcDbLine
10
773.03472815159785
20
25.913666458140199
30
0
11
773.03472815159785
21
34.41318925136585
31
0
0
LINE
5
299
100
AcDbEntity
8
0
100
AcDbLine
10
719.03467269360203
20
213.90169161899706
30
0
11
719.03467269360249
21
257.41366645814367
31
0
0
LINE
5
300
100
AcDbEntity
8
0
100
AcDbLine
10
817.53472815159762
20
25.913666458136504
30
0
11
817.53472815159762
21
34.413666458137868
31
0
0
LINE
5
301
100
AcDbEntity
8
0
100
AcDbLine
10
773.03472815159785
20
25.913666458140199
30
0
11
817.53472815159762
21
25.913666458136504
31
0
0
LINE
5
302
100
AcDbEntity
8
0
100
AcDbLine
10
719.03467269360249
20
77.925641297279356
30
0
11
719.0346726936034
21
34.413666458132752
31
0
0
LINE
5
303
100
AcDbEntity
8
0
100
AcDbLine
10
772.78472815159773
20
34.41318925136585
30
0
11
772.78472815159773
21
34.4136664581373
31
0
0
LINE
5
304
100
AcDbEntity
8
0
100
AcDbLine
10
719.03467269360158
20
213.45341004064579
30
0
11
710.53467269360317
21
213.45341004064778
31
0
0
LINE
5
305
100
AcDbEntity
8
0
100
AcDbLine
10
870.53467269360056
20
34.413666458138437
30
0
11
817.78472815159773
21
34.413666458137868
31
0
0
LINE
5
306
100
AcDbEntity
8
0
100
AcDbLine
10
710.53467269360362
20
78.373922875628637
30
0
11
710.53467269360328
21
121.47137229936646
31
0
0
LINE
5
307
100
AcDbEntity
8
0
100
AcDbLine
10
719.03467269360203
20
213.90169161899706
30
0
11
719.03467269360158
21
213.45341004064579
31
0
0
LINE
5
308
100
AcDbEntity
8
0
100
AcDbLine
10
719.03467269360249
20
169.90767903855982
30
0
11
719.03467269360203
21
170.35596061690967
31
0
0
LINE
5
309
100
AcDbEntity
8
0
100
AcDbLine
10
710.53467269360317
20
213.45341004064778
30
0
11
710.53467269360317
21
170.35596061690995
31
0
0
LINE
5
310
100
AcDbEntity
8
0
100
AcDbLine
10
773.03472815159785
20
34.41318925136585
30
0
11
772.78472815159773
21
34.41318925136585
31
0
0
LINE
5
311
100
AcDbEntity
8
0
100
AcDbLine
10
870.53467269359976
20
522.8136664581391
30
0
11
870.53467269359976
21
407.06366645814148
31
0
0
LINE
5
312
100
AcDbEntity
8
0
100
AcDbLine
10
817.53472815159682
20
531.31366645814046
30
0
11
817.53472815159682
21
522.8136664581391
31
0
0
LINE
5
313
100
AcDbEntity
8
0
100
AcDbLine
10
773.03472815159694
20
531.31366645813648
30
0
11
773.03472815159694
21
522.81414366491083
31
0
0
LINE
5
314
100
AcDbEntity
8
0
100
AcDbLine
10
817.53472815159682
20
522.8136664581391
30
0
11
817.78472815159694
21
522.8136664581391
31
0
0
LINE
5
315
100
AcDbEntity
8
0
100
AcDbLine
10
719.03467269360203
20
479.30169161899704
30
0
11
719.03467269360249
21
522.81366645814364
31
0
0
LINE
5
316
100
AcDbEntity
8
0
100
AcDbLine
10
817.53472815159762
20
299.81366645813785
30
0
11
817.78472815159773
21
299.81366645813785
31
0
0
LINE
5
317
100
AcDbEntity
8
0
100
AcDbLine
10
719.03467269360226
20
386.87137229936673
30
0
11
710.53467269360328
21
386.87137229936644
31
0
0
LWPOLYLINE
5
318
100
AcDbEntity
8
0
100
AcDbPolyline
90
4
70
1
43
0.0
10
719.03467269360203
20
435.75596061690965
10
719.0346726936026
20
387.31965387771658
10
719.03467269360226
20
386.87137229936673
10
719.03467269360249
20
435.3076790385598
0
LINE
5
319
100
AcDbEntity
8
0
100
AcDbLine
10
773.03472815159785
20
291.31366645814018
30
0
11
773.03472815159785
21
299.81318925136583
31
0
0
LINE
5
320
100
AcDbEntity
8
0
100
AcDbLine
10
719.03467269360249
20
343.32564129727933
30
0
11
719.0346726936034
21
299.81366645813273
31
0
0
LINE
5
321
100
AcDbEntity
8
0
100
AcDbLine
10
773.03472815159785
20
299.81318925136583
30
0
11
772.78472815159773
21
299.81318925136583
31
0
0
LINE
5
322
100
AcDbEntity
8
0
100
AcDbLine
10
719.03467269360158
20
478.85341004064577
30
0
11
710.53467269360317
21
478.85341004064776
31
0
0
LINE
5
323
100
AcDbEntity
8
0
100
AcDbLine
10
772.78472815159694
20
522.81414366491083
30
0
11
772.78472815159694
21
522.81366645813944
31
0
0
LINE
5
324
100
AcDbEntity
8
0
100
AcDbLine
10
773.03472815159694
20
522.81414366491083
30
0
11
772.78472815159694
21
522.81414366491083
31
0
0
LINE
5
325
100
AcDbEntity
8
0
100
AcDbLine
10
710.53467269360317
20
478.85341004064776
30
0
11
710.53467269360317
21
435.75596061690993
31
0
0
LINE
5
326
100
AcDbEntity
8
0
100
AcDbLine
10
772.78472815159773
20
299.81318925136583
30
0
11
772.78472815159773
21
299.81366645813728
31
0
0
LINE
5
327
100
AcDbEntity
8
0
100
AcDbLine
10
870.53467269360056
20
299.81366645813841
30
0
11
870.53467269359976
21
415.56366645813603
31
0
0
LINE
5
328
100
AcDbEntity
8
0
100
AcDbLine
10
719.03467269360226
20
343.7739228756306
30
0
11
710.53467269360362
21
343.77392287562861
31
0
0
LINE
5
329
100
AcDbEntity
8
0
100
AcDbLine
10
719.03467269360203
20
435.75596061690965
30
0
11
710.53467269360317
21
435.75596061690993
31
0
0
LINE
5
330
100
AcDbEntity
8
0
100
AcDbLine
10
870.53467269360056
20
299.81366645813841
30
0
11
817.78472815159773
21
299.81366645813785
31
0
0
LINE
5
331
100
AcDbEntity
8
0
100
AcDbLine
10
773.03472815159785
20
291.31366645814018
30
0
11
817.53472815159762
21
291.31366645813648
31
0
0
LINE
5
332
100
AcDbEntity
8
0
100
AcDbLine
10
710.53467269360362
20
343.77392287562861
30
0
11
710.53467269360328
21
386.87137229936644
31
0
0
LINE
5
333
100
AcDbEntity
8
0
100
AcDbLine
10
817.53472815159762
20
291.31366645813648
30
0
11
817.53472815159762
21
299.81366645813785
31
0
0
LINE
5
334
100
AcDbEntity
8
0
100
AcDbLine
10
772.78472815159773
20
299.81366645813728
30
0
11
719.0346726936034
21
299.81366645813273
31
0
0
LINE
5
335
100
AcDbEntity
8
0
100
AcDbLine
10
719.03467269360226
20
386.87137229936673
30
0
11
719.03467269360249
21
435.3076790385598
31
0
0
LINE
5
336
100
AcDbEntity
8
0
100
AcDbLine
10
719.03467269360203
20
435.75596061690965
30
0
11
719.0346726936026
21
387.31965387771658
31
0
0
LINE
5
337
100
AcDbEntity
8
0
100
AcDbLine
10
719.03467269360249
20
343.32564129727933
30
0
11
719.03467269360226
21
343.7739228756306
31
0
0
LINE
5
338
100
AcDbEntity
8
0
100
AcDbLine
10
870.53467269359976
20
522.8136664581391
30
0
11
817.78472815159694
21
522.8136664581391
31
0
0
LINE
5
339
100
AcDbEntity
8
0
100
AcDbLine
10
773.03472815159694
20
531.31366645813648
30
0
11
817.53472815159682
21
531.31366645814046
31
0
0
LINE
5
340
100
AcDbEntity
8
0
100
AcDbLine
10
719.03467269360203
20
479.30169161899704
30
0
11
719.03467269360158
21
478.85341004064577
31
0
0
LINE
5
341
100
AcDbEntity
8
0
100
AcDbLine
10
772.78472815159694
20
522.81366645813944
30
0
11
719.03467269360249
21
522.81366645814364
31
0
0
LINE
5
342
100
AcDbEntity
8
0
100
AcDbLine
10
330.53467269359987
20
309.71965387769609
30
0
11
330.53467269360084
21
310.16793545604764
31
0
0
LINE
5
343
100
AcDbEntity
8
0
100
AcDbLine
10
330.53467269360027
20
265.72564129727931
30
0
11
330.53467269359987
21
309.71965387769609
31
0
0
LINE
5
344
100
AcDbEntity
8
0
100
AcDbLine
10
330.53467269360027
20
265.72564129727931
30
0
11
330.53467269360027
21
265.27735971892776
31
0
0
LINE
5
345
100
AcDbEntity
8
0
100
AcDbLine
10
285.78467269360146
20
213.71366645813563
30
0
11
330.086391115249
21
213.71366645813592
31
0
0
LINE
5
346
100
AcDbEntity
8
0
100
AcDbLine
10
330.5346726935997
20
401.70169161899707
30
0
11
330.5346726935997
21
402.14997319734863
31
0
0
LINE
5
347
100
AcDbEntity
8
0
100
AcDbLine
10
330.5346726935997
20
401.70169161899707
30
0
11
330.5346726935997
21
357.7076790385803
31
0
0
LINE
5
348
100
AcDbEntity
8
0
100
AcDbLine
10
330.53467269360067
20
357.25939746022874
30
0
11
339.03467269360306
21
357.25939746022817
31
0
0
LINE
5
349
100
AcDbEntity
8
0
100
AcDbLine
10
330.53467269360027
20
265.27735971892776
30
0
11
339.03467269360362
21
265.27735971892719
31
0
0
LINE
5
350
100
AcDbEntity
8
0
100
AcDbLine
10
330.08639111524917
20
222.21366645813274
30
0
11
330.08639111524917
21
222.66194803648401
31
0
0
LINE
5
351
100
AcDbEntity
8
0
100
AcDbLine
10
330.08639111524917
20
222.66194803648401
30
0
11
330.53467269360056
21
222.66194803648401
31
0
0
LINE
5
352
100
AcDbEntity
8
0
100
AcDbLine
10
330.53467269360056
20
222.66194803648429
30
0
11
339.03467269360362
21
222.66194803648258
31
0
0
LINE
5
353
100
AcDbEntity
8
0
100
AcDbLine
10
339.03467269360362
20
265.27735971892719
30
0
11
339.03467269360362
21
222.66194803648258
31
0
0
LINE
5
354
100
AcDbEntity
8
0
100
AcDbLine
10
330.08639111524917
20
222.21366645813274
30
0
11
330.086391115249
21
213.71366645813592
31
0
0
LINE
5
355
100
AcDbEntity
8
0
100
AcDbLine
10
330.086391115249
20
213.71366645813592
30
0
11
285.78467269360146
21
213.71366645813563
31
0
0
LINE
5
356
100
AcDbEntity
8
0
100
AcDbLine
10
330.5346726935997
20
357.7076790385803
30
0
11
330.53467269360067
21
357.25939746022874
31
0
0
LINE
5
357
100
AcDbEntity
8
0
100
AcDbLine
10
330.5346726935997
20
402.14997319734863
30
0
11
339.03467269360317
21
402.1499731973492
31
0
0
LINE
5
358
100
AcDbEntity
8
0
100
AcDbLine
10
285.78467269360061
20
453.71366645814049
30
0
11
330.08639111524815
21
453.71366645814049
31
0
0
LINE
5
359
100
AcDbEntity
8
0
100
AcDbLine
10
330.08639111524826
20
444.76538487979241
30
0
11
330.5346726935997
21
444.76538487979241
31
0
0
LINE
5
360
100
AcDbEntity
8
0
100
AcDbLine
10
330.5346726935997
20
444.76538487979212
30
0
11
339.03467269360277
21
444.76538487979383
31
0
0
LINE
5
361
100
AcDbEntity
8
0
100
AcDbLine
10
330.08639111524815
20
453.71366645814049
30
0
11
285.78467269360061
21
453.71366645814049
31
0
0
LINE
5
362
100
AcDbEntity
8
0
100
AcDbLine
10
330.08639111524826
20
445.21366645814368
30
0
11
330.08639111524815
21
453.71366645814049
31
0
0
LINE
5
363
100
AcDbEntity
8
0
100
AcDbLine
10
37.784672693598793
20
444.96366645814362
30
0
11
29.034672693599362
21
444.96366645814362
31
0
0
LINE
5
364
100
AcDbEntity
8
0
100
AcDbLine
10
37.534672693595894
20
401.70169161900077
30
0
11
37.534672693594757
21
357.70767903858399
31
0
0
LINE
5
365
100
AcDbEntity
8
0
100
AcDbLine
10
82.78467269359794
20
445.21366645813998
30
0
11
82.284672693598253
21
445.21366645813998
31
0
0
LINE
5
366
100
AcDbEntity
8
0
100
AcDbLine
10
339.03467269360317
20
402.1499731973492
30
0
11
339.03467269360277
21
444.76538487979383
31
0
0
LWPOLYLINE
5
367
100
AcDbEntity
8
0
100
AcDbPolyline
90
2
70
1
43
0.0
10
339.03467269360317
20
310.16793545604821
10
339.03467269360306
20
357.25939746022817
0
LINE
5
368
100
AcDbEntity
8
0
100
AcDbLine
10
285.78467269360146
20
213.71366645813563
30
0
11
285.78467269360158
21
222.21366645814439
31
0
0
LINE
5
369
100
AcDbEntity
8
0
100
AcDbLine
10
29.034672693591403
20
357.25939746023215
30
0
11
29.034672693591546
21
310.16793545604196
31
0
0
LINE
5
370
100
AcDbEntity
8
0
100
AcDbLine
10
330.08639111524826
20
445.21366645814368
30
0
11
330.08639111524826
21
444.76538487979241
31
0
0
LINE
5
371
100
AcDbEntity
8
0
100
AcDbLine
10
29.034672693591403
20
357.25939746023215
30
0
11
29.034672693591546
21
310.16793545604196
31
0
0
LINE
5
372
100
AcDbEntity
8
0
100
AcDbLine
10
285.78467269360158
20
222.21366645814439
30
0
11
285.28467269360146
21
222.2136664581441
31
0
0
LINE
5
373
100
AcDbEntity
8
0
100
AcDbLine
10
29.034672693591403
20
357.25939746023215
30
0
11
29.034672693591546
21
310.16793545604196
31
0
0
LINE
5
374
100
AcDbEntity
8
0
100
AcDbLine
10
29.034672693593109
20
265.27735971892093
30
0
11
29.034672693600214
21
222.46366645813052
31
0
0
LINE
5
375
100
AcDbEntity
8
0
100
AcDbLine
10
29.034672693593109
20
265.27735971892093
30
0
11
29.034672693600214
21
222.46366645813052
31
0
0
LINE
5
376
100
AcDbEntity
8
0
100
AcDbLine
10
206.53467269360021
20
222.21366645813501
30
0
11
285.53467269360254
21
222.21366645813359
31
0
0
LINE
5
377
100
AcDbEntity
8
0
100
AcDbLine
10
161.78467269360269
20
222.213666458137
30
0
11
161.78467269360269
21
213.7136664581345
31
0
0
LINE
5
378
100
AcDbEntity
8
0
100
AcDbLine
10
82.534672693599873
20
222.21366645813444
30
0
11
161.53467269359922
21
222.21366645813558
31
0
0
LINE
5
379
100
AcDbEntity
8
0
100
AcDbLine
10
82.53467269359902
20
445.21366645813998
30
0
11
161.53467269359837
21
445.21366645813941
31
0
0
LINE
5
380
100
AcDbEntity
8
0
100
AcDbLine
10
37.534672693596463
20
265.72564129727334
30
0
11
37.534672693596463
21
265.27735971892179
31
0
0
LINE
5
381
100
AcDbEntity
8
0
100
AcDbLine
10
161.28467269360257
20
222.213666458137
30
0
11
161.78467269360269
21
222.213666458137
31
0
0
LINE
5
382
100
AcDbEntity
8
0
100
AcDbLine
10
82.284672693598964
20
213.71366645812626
30
0
11
37.784672693599646
21
213.71366645813364
31
0
0
LINE
5
383
100
AcDbEntity
8
0
100
AcDbLine
10
82.284672693599106
20
222.21366645813444
30
0
11
82.284672693598964
21
213.71366645812626
31
0
0
LINE
5
384
100
AcDbEntity
8
0
100
AcDbLine
10
206.28467269359945
20
222.21366645813245
30
0
11
206.78467269359942
21
222.21366645813217
31
0
0
LINE
5
385
100
AcDbEntity
8
0
100
AcDbLine
10
285.78467269360078
20
445.21366645813174
30
0
11
285.28467269360067
21
445.21366645813202
31
0
0
LINE
5
386
100
AcDbEntity
8
0
100
AcDbLine
10
37.534672693596463
20
265.72564129727334
30
0
11
37.534672693594899
21
309.71965387769012
31
0
0
LWPOLYLINE
5
387
100
AcDbEntity
8
0
100
AcDbPolyline
90
2
70
1
43
0.0
10
206.28467269359945
20
213.71366645813308
10
161.78467269360269
20
213.7136664581345
0
LINE
5
388
100
AcDbEntity
8
0
100
AcDbLine
10
29.034672693599362
20
444.96366645814362
30
0
11
29.03467269359254
21
402.14997319735318
31
0
0
LINE
5
389
100
AcDbEntity
8
0
100
AcDbLine
10
206.28467269359945
20
213.71366645813308
30
0
11
206.28467269359945
21
222.21366645813245
31
0
0
LINE
5
390
100
AcDbEntity
8
0
100
AcDbLine
10
37.534672693596463
20
265.27735971892179
30
0
11
29.034672693593109
21
265.27735971892093
31
0
0
LINE
5
391
100
AcDbEntity
8
0
100
AcDbLine
10
161.28467269360172
20
445.21366645813799
30
0
11
161.78467269360183
21
445.21366645813799
31
0
0
LINE
5
392
100
AcDbEntity
8
0
100
AcDbLine
10
37.784672693599646
20
213.71366645813364
30
0
11
82.284672693598964
21
213.71366645812626
31
0
0
LINE
5
393
100
AcDbEntity
8
0
100
AcDbLine
10
285.78467269360061
20
453.71366645814049
30
0
11
285.78467269360078
21
445.21366645813174
31
0
0
LINE
5
394
100
AcDbEntity
8
0
100
AcDbLine
10
206.28467269359859
20
445.21366645814311
30
0
11
206.78467269359857
21
445.21366645814339
31
0
0
LINE
5
395
100
AcDbEntity
8
0
100
AcDbLine
10
37.534672693596463
20
265.72564129727334
30
0
11
37.534672693594899
21
309.71965387769012
31
0
0
LINE
5
396
100
AcDbEntity
8
0
100
AcDbLine
10
206.53467269359936
20
445.21366645814055
30
0
11
285.53467269360169
21
445.21366645814254
31
0
0
LINE
5
397
100
AcDbEntity
8
0
100
AcDbLine
10
82.784672693598793
20
222.21366645813444
30
0
11
82.284672693599106
21
222.21366645813444
31
0
0
LINE
5
398
100
AcDbEntity
8
0
100
AcDbLine
10
37.534672693593905
20
310.16793545604168
30
0
11
29.034672693591546
21
310.16793545604196
31
0
0
LINE
5
399
100
AcDbEntity
8
0
100
AcDbLine
10
37.534672693594899
20
309.71965387769012
30
0
11
37.534672693593905
21
310.16793545604168
31
0
0
LINE
5
400
100
AcDbEntity
8
0
100
AcDbLine
10
206.28467269359859
20
453.71366645814248
30
0
11
161.78467269360183
21
453.71366645814049
31
0
0
LINE
5
401
100
AcDbEntity
8
0
100
AcDbLine
10
37.784672693599646
20
213.71366645813364
30
0
11
37.784672693599646
21
222.21366645813359
31
0
0
LINE
5
402
100
AcDbEntity
8
0
100
AcDbLine
10
82.284672693598253
20
445.21366645813998
30
0
11
82.284672693598111
21
453.71366645814817
31
0
0
LINE
5
403
100
AcDbEntity
8
0
100
AcDbLine
10
29.034672693591403
20
357.25939746023215
30
0
11
29.034672694758967
21
333.71366645813708
31
0
0
LINE
5
404
100
AcDbEntity
8
0
100
AcDbLine
10
37.534672693595894
20
401.70169161900077
30
0
11
37.534672693595894
21
402.14997319735232
31
0
0
LINE
5
405
100
AcDbEntity
8
0
100
AcDbLine
10
37.784672693598793
20
453.71366645814049
30
0
11
37.784672693598793
21
445.21366645814055
31
0
0
LINE
5
406
100
AcDbEntity
8
0
100
AcDbLine
10
37.784672693599646
20
222.21366645813046
30
0
11
37.784672693599646
21
222.46366645813052
31
0
0
LWPOLYLINE
5
407
100
AcDbEntity
8
0
100
AcDbPolyline
90
2
70
1
43
0.0
10
82.284672693598111
20
453.71366645814817
10
37.784672693598793
20
453.71366645814049
0
LINE
5
408
100
AcDbEntity
8
0
100
AcDbLine
10
37.784672693599646
20
222.46366645813052
30
0
11
29.034672693600214
21
222.46366645813052
31
0
0
LINE
5
409
100
AcDbEntity
8
0
100
AcDbLine
10
161.78467269360183
20
453.71366645814049
30
0
11
206.28467269359859
21
453.71366645814248
31
0
0
LINE
5
410
100
AcDbEntity
8
0
100
AcDbLine
10
206.28467269359859
20
453.71366645814248
30
0
11
206.28467269359859
21
445.21366645814311
31
0
0
LINE
5
411
100
AcDbEntity
8
0
100
AcDbLine
10
161.78467269360183
20
445.21366645813799
30
0
11
161.78467269360183
21
453.71366645814049
31
0
0
LINE
5
412
100
AcDbEntity
8
0
100
AcDbLine
10
37.534672693594757
20
357.70767903858399
30
0
11
37.534672693593762
21
357.25939746023244
31
0
0
LINE
5
413
100
AcDbEntity
8
0
100
AcDbLine
10
37.534672693595894
20
402.14997319735232
30
0
11
29.03467269359254
21
402.14997319735318
31
0
0
LINE
5
414
100
AcDbEntity
8
0
100
AcDbLine
10
37.534672693593762
20
357.25939746023244
30
0
11
29.034672693591403
21
357.25939746023215
31
0
0
LINE
5
415
100
AcDbEntity
8
0
100
AcDbLine
10
37.784672693598793
20
445.21366645814368
30
0
11
37.784672693598793
21
444.96366645814362
31
0
0
LWPOLYLINE
5
416
100
AcDbEntity
8
0
100
AcDbPolyline
90
2
70
1
43
0.0
10
29.03467269359254
20
402.14997319735318
10
29.034672693599362
20
444.96366645814362
0
LINE
5
417
100
AcDbEntity
8
0
100
AcDbLine
10
37.534672693595894
20
401.70169161900077
30
0
11
37.534672693594757
21
357.70767903858399
31
0
0
LINE
5
418
100
AcDbEntity
8
0
100
AcDbLine
10
330.53467269360084
20
310.16793545604764
30
0
11
339.03467269360317
21
310.16793545604821
31
0
0
LINE
5
419
100
AcDbEntity
8
0
100
AcDbLine
10
29.034672693600214
20
222.46366645813052
30
0
11
29.034672693593109
21
265.27735971892093
31
0
0
LWPOLYLINE
5
420
100
AcDbEntity
8
0
100
AcDbPolyline
90
2
70
1
43
0.0
10
29.034672693591546
20
310.16793545604196
10
29.034672693591403
20
357.25939746023215
0
LINE
5
421
100
AcDbEntity
8
0
100
AcDbLine
10
29.034672693591546
20
310.16793545604196
30
0
11
29.034672693591403
21
357.25939746023215
31
0
0
LINE
5
422
100
AcDbEntity
8
0
100
AcDbLine
10
29.034672693591546
20
310.16793545604196
30
0
11
29.034672694758967
21
333.71366645813708
31
0
0
LWPOLYLINE
5
423
100
AcDbEntity
8
0
100
AcDbPolyline
90
10
70
1
43
0.0
10
89.168078705917054
20
479.3838079675732
10
89.168078705917054
20
530.18380796757322
10
24.168078705917083
20
530.18380796757322
10
24.168078705917075
20
487.88380796757332
10
40.668078705917104
20
487.88380796757332
10
40.668078705917104
20
479.3838079675732
10
56.418078705917118
20
479.3838079675732
10
56.418078705917118
20
487.88380796757326
10
73.168078705917068
20
487.88380796757326
10
73.168078705917068
20
479.3838079675732
0
LINE
5
424
100
AcDbEntity
8
0
100
AcDbLine
10
24.199999999999999
20
555.62582764405317
30
0
11
24.199999999999999
21
555.87582764405329
31
0
0
LWPOLYLINE
5
425
100
AcDbEntity
8
0
100
AcDbPolyline
90
10
70
1
43
0.0
10
131.06807870591712
20
487.88380796757332
10
131.06807870591712
20
479.3838079675732
10
146.81807870591712
20
479.3838079675732
10
146.81807870591712
20
487.88380796757326
10
163.56807870591709
20
487.88380796757326
10
163.56807870591709
20
479.3838079675732
10
179.56807870591706
20
479.3838079675732
10
179.56807870591706
20
530.18380796757322
10
114.5680787059171
20
530.18380796757322
10
114.56807870591709
20
487.88380796757332
0
LINE
5
426
100
AcDbEntity
8
0
100
AcDbLine
10
72.668078705917083
20
487.88380796757326
30
0
11
73.168078705917068
21
487.88380796757326
31
0
0
LINE
5
427
100
AcDbEntity
8
0
100
AcDbLine
10
163.06807870591712
20
487.88380796757326
30
0
11
163.56807870591709
21
487.88380796757326
31
0
0
LINE
5
428
100
AcDbEntity
8
0
100
AcDbLine
10
56.418078705917118
20
487.88380796757326
30
0
11
56.918078705917083
21
487.88380796757326
31
0
0
LINE
5
429
100
AcDbEntity
8
0
100
AcDbLine
10
114.56807870591709
20
487.88380796757332
30
0
11
114.81807870591707
21
487.88380796757332
31
0
0
LINE
5
430
100
AcDbEntity
8
0
100
AcDbLine
10
130.56807870591715
20
487.88380796757332
30
0
11
131.06807870591712
21
487.88380796757332
31
0
0
LINE
5
431
100
AcDbEntity
8
0
100
AcDbLine
10
89.168078705917054
20
479.3838079675732
30
0
11
88.918078705917068
21
479.3838079675732
31
0
0
LINE
5
432
100
AcDbEntity
8
0
100
AcDbLine
10
89.168078705917054
20
487.88380796757326
30
0
11
89.168078705917054
21
479.3838079675732
31
0
0
LINE
5
433
100
AcDbEntity
8
0
100
AcDbLine
10
146.81807870591712
20
487.88380796757326
30
0
11
147.31807870591709
21
487.88380796757326
31
0
0
LINE
5
434
100
AcDbEntity
8
0
100
AcDbLine
10
723.81204884663407
20
555.62582764405317
30
0
11
24.199999999999999
21
555.62582764405317
31
0
0
LINE
5
435
100
AcDbEntity
8
0
100
AcDbLine
10
32.699999999999996
20
620.62582764405317
30
0
11
719.70000000000016
21
620.62582764405317
31
0
0
LWPOLYLINE
5
436
100
AcDbEntity
8
0
100
AcDbPolyline
90
2
70
1
43
0.0
10
723.81204884663407
20
555.62582764405317
10
719.70000000000016
20
555.62582764405317
0
LINE
5
437
100
AcDbEntity
8
0
100
AcDbLine
10
723.87996326059897
20
571.62582764405317
30
0
11
723.88102255927015
21
571.87538849203679
31
0
0
LINE
5
438
100
AcDbEntity
8
0
100
AcDbLine
10
728.20000000000005
20
555.62582764405317
30
0
11
728.20000000000005
21
555.87582764405329
31
0
0
LINE
5
439
100
AcDbEntity
8
0
100
AcDbLine
10
728.20000000000005
20
555.62582764405317
30
0
11
719.70000000000016
21
555.62582764405317
31
0
0
LINE
5
440
100
AcDbEntity
8
0
100
AcDbLine
10
723.88102504467724
20
571.87597403069606
30
0
11
723.88102255927015
21
571.87538849203679
31
0
0
LINE
5
441
100
AcDbEntity
8
0
100
AcDbLine
10
728.20000000000005
20
555.62582764405317
30
0
11
728.20000000000005
21
571.62582764405317
31
0
0
LINE
5
442
100
AcDbEntity
8
0
100
AcDbLine
10
719.70000000000016
20
571.62582764405317
30
0
11
728.20000000000005
21
571.62582764405317
31
0
0
LINE
5
443
100
AcDbEntity
8
0
100
AcDbLine
10
719.70000000000016
20
555.62582764405317
30
0
11
728.20000000000005
21
555.62582764405317
31
0
0
LINE
5
444
100
AcDbEntity
8
0
100
AcDbLine
10
719.70000000000016
20
572.12582764405329
30
0
11
719.70000000000016
21
571.62582764405317
31
0
0
LINE
5
445
100
AcDbEntity
8
0
100
AcDbLine
10
719.70000000000016
20
588.37582764405329
30
0
11
719.70000000000016
21
587.87582764405317
31
0
0
LINE
5
446
100
AcDbEntity
8
0
100
AcDbLine
10
719.70000000000016
20
604.62582764405329
30
0
11
719.70000000000016
21
604.12582764405317
31
0
0
LINE
5
447
100
AcDbEntity
8
0
100
AcDbLine
10
728.20000000000005
20
588.37582764405329
30
0
11
719.70000000000016
21
588.37582764405329
31
0
0
LINE
5
448
100
AcDbEntity
8
0
100
AcDbLine
10
728.20000000000005
20
588.37582764405329
30
0
11
728.20000000000005
21
604.12582764405317
31
0
0
LINE
5
449
100
AcDbEntity
8
0
100
AcDbLine
10
723.95000000000005
20
604.12582764405317
30
0
11
723.95000000000005
21
604.37582764405317
31
0
0
LINE
5
450
100
AcDbEntity
8
0
100
AcDbLine
10
723.95000000000005
20
588.12582764405317
30
0
11
723.95000000000005
21
588.37582764405329
31
0
0
LINE
5
451
100
AcDbEntity
8
0
100
AcDbLine
10
719.70000000000016
20
620.62582764405317
30
0
11
719.70000000000016
21
620.37582764405317
31
0
0
LINE
5
452
100
AcDbEntity
8
0
100
AcDbLine
10
719.70000000000016
20
604.12582764405317
30
0
11
728.20000000000005
21
604.12582764405317
31
0
0
LINE
5
453
100
AcDbEntity
8
0
100
AcDbLine
10
719.70000000000016
20
604.12582764405317
30
0
11
719.70000000000016
21
620.62582764405317
31
0
0
LINE
5
454
100
AcDbEntity
8
0
100
AcDbLine
10
719.70000000000016
20
571.62582764405317
30
0
11
719.70000000000016
21
588.37582764405329
31
0
0
LINE
5
455
100
AcDbEntity
8
0
100
AcDbLine
10
24.199999999999999
20
588.37582764405329
30
0
11
24.199999999999999
21
604.12582764405317
31
0
0
LINE
5
456
100
AcDbEntity
8
0
100
AcDbLine
10
32.699999999999996
20
588.37582764405329
30
0
11
32.699999999999996
21
587.87582764405317
31
0
0
LINE
5
457
100
AcDbEntity
8
0
100
AcDbLine
10
24.199999999999999
20
555.62582764405317
30
0
11
24.199999999999999
21
571.62582764405317
31
0
0
LINE
5
458
100
AcDbEntity
8
0
100
AcDbLine
10
24.168078705917075
20
487.88380796757332
30
0
11
24.418078705917061
21
487.88380796757332
31
0
0
LINE
5
459
100
AcDbEntity
8
0
100
AcDbLine
10
32.699999999999996
20
604.12582764405317
30
0
11
32.699999999999996
21
620.62582764405317
31
0
0
LINE
5
460
100
AcDbEntity
8
0
100
AcDbLine
10
32.699999999999996
20
571.62582764405317
30
0
11
32.699999999999996
21
588.37582764405329
31
0
0
LINE
5
461
100
AcDbEntity
8
0
100
AcDbLine
10
32.699999999999996
20
571.62582764405317
30
0
11
24.199999999999999
21
571.62582764405317
31
0
0
LINE
5
462
100
AcDbEntity
8
0
100
AcDbLine
10
24.199999999999999
20
555.62582764405317
30
0
11
32.699999999999996
21
555.62582764405317
31
0
0
LINE
5
463
100
AcDbEntity
8
0
100
AcDbLine
10
179.56807870591706
20
479.3838079675732
30
0
11
179.31807870591709
21
479.3838079675732
31
0
0
LINE
5
464
100
AcDbEntity
8
0
100
AcDbLine
10
24.199999999999999
20
588.37582764405329
30
0
11
32.699999999999996
21
588.37582764405329
31
0
0
LINE
5
465
100
AcDbEntity
8
0
100
AcDbLine
10
32.699999999999996
20
620.62582764405317
30
0
11
32.699999999999996
21
620.37582764405317
31
0
0
LINE
5
466
100
AcDbEntity
8
0
100
AcDbLine
10
32.699999999999996
20
572.12582764405329
30
0
11
32.699999999999996
21
571.62582764405317
31
0
0
LINE
5
467
100
AcDbEntity
8
0
100
AcDbLine
10
32.699999999999996
20
604.12582764405317
30
0
11
24.199999999999999
21
604.12582764405317
31
0
0
LINE
5
468
100
AcDbEntity
8
0
100
AcDbLine
10
32.699999999999996
20
555.62582764405317
30
0
11
24.199999999999999
21
555.62582764405317
31
0
0
LINE
5
469
100
AcDbEntity
8
0
100
AcDbLine
10
40.168078705917132
20
487.88380796757332
30
0
11
40.668078705917104
21
487.88380796757332
31
0
0
LINE
5
470
100
AcDbEntity
8
0
100
AcDbLine
10
179.56807870591706
20
487.88380796757326
30
0
11
179.56807870591706
21
479.3838079675732
31
0
0
LINE
5
471
100
AcDbEntity
8
0
100
AcDbLine
10
32.699999999999996
20
604.62582764405329
30
0
11
32.699999999999996
21
604.12582764405317
31
0
0
ENDSEC
0
SECTION
2
OBJECTS
0
DICTIONARY
5
C
100
AcDbDictionary
3
ACAD_GROUP
350
D
3
ACAD_MLINESTYLE
350
17
0
DICTIONARY
5
D
100
AcDbDictionary
0
DICTIONARY
5
1A
330
C
100
AcDbDictionary
0
DICTIONARY
5
17
100
AcDbDictionary
0
ENDSEC
0
EOF
